<svg width="1323" height="708" viewBox="0 0 1323 708" fill="none" xmlns="http://www.w3.org/2000/svg">
<path d="M1144.4 669.973L1138.98 675.105L1139.96 676.143L1145.39 671.011L1144.4 669.973Z" fill="#424242"/>
<path d="M487.418 669.973L481.99 675.105L482.971 676.143L488.399 671.011L487.418 669.973Z" fill="#424242"/>
<path d="M1231.57 623.683L1224.3 621.975L1223.97 623.365L1231.25 625.073L1231.57 623.683Z" fill="#424242"/>
<path d="M602.586 688.68L595.314 686.973L594.987 688.363L602.259 690.07L602.586 688.68Z" fill="#424242"/>
<path d="M1299.97 509.189L1301.06 516.58L1302.48 516.371L1301.38 508.98L1299.97 509.189Z" fill="#424242"/>
<path d="M1310.22 661.974L1302.97 663.807L1303.32 665.191L1310.57 663.358L1310.22 661.974Z" fill="#424242"/>
<path d="M1223.78 528.035L1221.32 520.98L1219.97 521.449L1222.43 528.504L1223.78 528.035Z" fill="#424242"/>
<path d="M982.098 568.247L980.37 560.978L978.979 561.308L980.708 568.578L982.098 568.247Z" fill="#424242"/>
<path d="M798.103 696.242L796.374 688.973L794.984 689.303L796.712 696.573L798.103 696.242Z" fill="#424242"/>
<path d="M1057.49 632.003C1058.33 632.003 1059.01 631.325 1059.01 630.489C1059.01 629.653 1058.33 628.975 1057.49 628.975C1056.66 628.975 1055.98 629.653 1055.98 630.489C1055.98 631.325 1056.66 632.003 1057.49 632.003Z" fill="#424242"/>
<path d="M956.494 681.001C957.33 681.001 958.008 680.323 958.008 679.487C958.008 678.651 957.33 677.973 956.494 677.973C955.658 677.973 954.98 678.651 954.98 679.487C954.98 680.323 955.658 681.001 956.494 681.001Z" fill="#424242"/>
<path d="M740.498 677.001C741.335 677.001 742.012 676.323 742.012 675.487C742.012 674.651 741.335 673.973 740.498 673.973C739.662 673.973 738.984 674.651 738.984 675.487C738.984 676.323 739.662 677.001 740.498 677.001Z" fill="#424242"/>
<path d="M645.5 708C646.336 708 647.014 707.322 647.014 706.486C647.014 705.65 646.336 704.972 645.5 704.972C644.664 704.972 643.986 705.65 643.986 706.486C643.986 707.322 644.664 708 645.5 708Z" fill="#424242"/>
<path d="M529.503 681.001C530.339 681.001 531.017 680.323 531.017 679.487C531.017 678.651 530.339 677.973 529.503 677.973C528.667 677.973 527.989 678.651 527.989 679.487C527.989 680.323 528.667 681.001 529.503 681.001Z" fill="#424242"/>
<path d="M876.495 697C877.332 697 878.009 696.322 878.009 695.486C878.009 694.65 877.332 693.972 876.495 693.972C875.659 693.972 874.981 694.65 874.981 695.486C874.981 696.322 875.659 697 876.495 697Z" fill="#424242"/>
<path d="M1321.49 594.005C1322.32 594.005 1323 593.327 1323 592.491C1323 591.654 1322.32 590.977 1321.49 590.977C1320.65 590.977 1319.97 591.654 1319.97 592.491C1319.97 593.327 1320.65 594.005 1321.49 594.005Z" fill="#424242"/>
<path d="M1158.49 612.004C1159.33 612.004 1160 611.326 1160 610.49C1160 609.653 1159.33 608.976 1158.49 608.976C1157.65 608.976 1156.98 609.653 1156.98 610.49C1156.98 611.326 1157.65 612.004 1158.49 612.004Z" fill="#424242"/>
<path d="M1249.49 700C1250.32 700 1251 699.322 1251 698.486C1251 697.65 1250.32 696.972 1249.49 696.972C1248.65 696.972 1247.97 697.65 1247.97 698.486C1247.97 699.322 1248.65 700 1249.49 700Z" fill="#424242"/>
<path d="M932.494 508.008C933.331 508.008 934.008 507.33 934.008 506.494C934.008 505.658 933.331 504.98 932.494 504.98C931.658 504.98 930.98 505.658 930.98 506.494C930.98 507.33 931.658 508.008 932.494 508.008Z" fill="#424242"/>
<path d="M1095.49 555.006C1096.33 555.006 1097.01 554.328 1097.01 553.492C1097.01 552.656 1096.33 551.978 1095.49 551.978C1094.65 551.978 1093.98 552.656 1093.98 553.492C1093.98 554.328 1094.65 555.006 1095.49 555.006Z" fill="#424242"/>
<path d="M1225.49 579.89C1226.33 579.89 1227 579.212 1227 578.376C1227 577.54 1226.33 576.862 1225.49 576.862C1224.65 576.862 1223.98 577.54 1223.98 578.376C1223.98 579.212 1224.65 579.89 1225.49 579.89Z" fill="#424242"/>
<path d="M1113.98 591.185L1115.07 598.576L1116.48 598.368L1115.39 590.977L1113.98 591.185Z" fill="#383838"/>
<path d="M32 575.186L33.0914 582.577L34.5032 582.368L33.4117 574.977L32 575.186Z" fill="#383838"/>
<path d="M327.993 641.183L329.085 648.574L330.496 648.366L329.405 640.975L327.993 641.183Z" fill="#383838"/>
<path d="M108.241 592.977L100.998 594.81L101.348 596.194L108.591 594.361L108.241 592.977Z" fill="#383838"/>
<path d="M26.2431 509.98L18.9999 511.813L19.3501 513.198L26.5933 511.364L26.2431 509.98Z" fill="#383838"/>
<path d="M12.6035 699.425L19.3734 696.267L18.7699 694.972L12 698.13L12.6035 699.425Z" fill="#383838"/>
<path d="M426.121 515.98L419.991 520.249L420.807 521.42L426.938 517.152L426.121 515.98Z" fill="#383838"/>
<path d="M203.799 550.033L201.344 542.979L199.996 543.448L202.451 550.503L203.799 550.033Z" fill="#383838"/>
<path d="M426.991 673.095L427.63 680.54L429.054 680.417L428.415 672.973L426.991 673.095Z" fill="#383838"/>
<path d="M256.509 652.002C257.345 652.002 258.023 651.324 258.023 650.488C258.023 649.652 257.345 648.974 256.509 648.974C255.672 648.974 254.995 649.652 254.995 650.488C254.995 651.324 255.672 652.002 256.509 652.002Z" fill="#383838"/>
<path d="M180.51 699C181.346 699 182.024 698.322 182.024 697.486C182.024 696.65 181.346 695.972 180.51 695.972C179.674 695.972 178.996 696.65 178.996 697.486C178.996 698.322 179.674 699 180.51 699Z" fill="#383838"/>
<path d="M297.508 693.001C298.344 693.001 299.022 692.323 299.022 691.487C299.022 690.65 298.344 689.973 297.508 689.973C296.671 689.973 295.994 690.65 295.994 691.487C295.994 692.323 296.671 693.001 297.508 693.001Z" fill="#383838"/>
<path d="M137.511 515.008C138.347 515.008 139.025 514.33 139.025 513.494C139.025 512.658 138.347 511.98 137.511 511.98C136.675 511.98 135.997 512.658 135.997 513.494C135.997 514.33 136.675 515.008 137.511 515.008Z" fill="#383838"/>
<path d="M514.503 631.003C515.339 631.003 516.017 630.325 516.017 629.489C516.017 628.653 515.339 627.975 514.503 627.975C513.667 627.975 512.989 628.653 512.989 629.489C512.989 630.325 513.667 631.003 514.503 631.003Z" fill="#383838"/>
<path d="M377.506 673.001C378.342 673.001 379.02 672.323 379.02 671.487C379.02 670.651 378.342 669.973 377.506 669.973C376.67 669.973 375.992 670.651 375.992 671.487C375.992 672.323 376.67 673.001 377.506 673.001Z" fill="#383838"/>
<path d="M348.507 519.008C349.343 519.008 350.021 518.33 350.021 517.494C350.021 516.658 349.343 515.98 348.507 515.98C347.671 515.98 346.993 516.658 346.993 517.494C346.993 518.33 347.671 519.008 348.507 519.008Z" fill="#383838"/>
<path d="M259.509 510.008C260.345 510.008 261.023 509.33 261.023 508.494C261.023 507.658 260.345 506.98 259.509 506.98C258.672 506.98 257.995 507.658 257.995 508.494C257.995 509.33 258.672 510.008 259.509 510.008Z" fill="#383838"/>
<path d="M1.514 630.003C2.35016 630.003 3.028 629.325 3.028 628.489C3.028 627.653 2.35016 626.975 1.514 626.975C0.677841 626.975 0 627.653 0 628.489C0 629.325 0.677841 630.003 1.514 630.003Z" fill="#383838"/>
<path d="M60.5125 649.002C61.3487 649.002 62.0265 648.324 62.0265 647.488C62.0265 646.652 61.3487 645.974 60.5125 645.974C59.6764 645.974 58.9985 646.652 58.9985 647.488C58.9985 648.324 59.6764 649.002 60.5125 649.002Z" fill="#383838"/>
<path d="M1144.4 423.983L1138.98 429.115L1139.96 430.153L1145.39 425.021L1144.4 423.983Z" fill="#424242"/>
<path d="M487.418 423.983L481.99 429.115L482.971 430.153L488.399 425.021L487.418 423.983Z" fill="#424242"/>
<path d="M1218.57 436.69L1211.3 434.982L1210.97 436.373L1218.25 438.081L1218.57 436.69Z" fill="#424242"/>
<path d="M602.586 442.69L595.314 440.982L594.987 442.373L602.259 444.08L602.586 442.69Z" fill="#424242"/>
<path d="M1299.97 263.198L1301.06 270.589L1302.48 270.38L1301.38 262.989L1299.97 263.198Z" fill="#424242"/>
<path d="M1310.22 415.983L1302.97 417.817L1303.32 419.201L1310.57 417.368L1310.22 415.983Z" fill="#424242"/>
<path d="M1223.78 282.044L1221.32 274.989L1219.97 275.459L1222.43 282.514L1223.78 282.044Z" fill="#424242"/>
<path d="M982.098 322.257L980.37 314.987L978.979 315.318L980.708 322.588L982.098 322.257Z" fill="#424242"/>
<path d="M798.103 450.252L796.374 442.982L794.984 443.313L796.712 450.583L798.103 450.252Z" fill="#424242"/>
<path d="M1057.49 386.013C1058.33 386.013 1059.01 385.335 1059.01 384.499C1059.01 383.663 1058.33 382.985 1057.49 382.985C1056.66 382.985 1055.98 383.663 1055.98 384.499C1055.98 385.335 1056.66 386.013 1057.49 386.013Z" fill="#424242"/>
<path d="M956.494 435.011C957.33 435.011 958.008 434.333 958.008 433.497C958.008 432.661 957.33 431.983 956.494 431.983C955.658 431.983 954.98 432.661 954.98 433.497C954.98 434.333 955.658 435.011 956.494 435.011Z" fill="#424242"/>
<path d="M740.498 431.011C741.335 431.011 742.012 430.333 742.012 429.497C742.012 428.661 741.335 427.983 740.498 427.983C739.662 427.983 738.984 428.661 738.984 429.497C738.984 430.333 739.662 431.011 740.498 431.011Z" fill="#424242"/>
<path d="M645.5 462.01C646.336 462.01 647.014 461.332 647.014 460.496C647.014 459.66 646.336 458.982 645.5 458.982C644.664 458.982 643.986 459.66 643.986 460.496C643.986 461.332 644.664 462.01 645.5 462.01Z" fill="#424242"/>
<path d="M529.503 435.011C530.339 435.011 531.017 434.333 531.017 433.497C531.017 432.661 530.339 431.983 529.503 431.983C528.667 431.983 527.989 432.661 527.989 433.497C527.989 434.333 528.667 435.011 529.503 435.011Z" fill="#424242"/>
<path d="M876.495 451.01C877.332 451.01 878.009 450.332 878.009 449.496C878.009 448.66 877.332 447.982 876.495 447.982C875.659 447.982 874.981 448.66 874.981 449.496C874.981 450.332 875.659 451.01 876.495 451.01Z" fill="#424242"/>
<path d="M1321.49 348.014C1322.32 348.014 1323 347.336 1323 346.5C1323 345.664 1322.32 344.986 1321.49 344.986C1320.65 344.986 1319.97 345.664 1319.97 346.5C1319.97 347.336 1320.65 348.014 1321.49 348.014Z" fill="#424242"/>
<path d="M1172.49 524.007C1173.33 524.007 1174 523.33 1174 522.493C1174 521.657 1173.33 520.979 1172.49 520.979C1171.65 520.979 1170.98 521.657 1170.98 522.493C1170.98 523.33 1171.65 524.007 1172.49 524.007Z" fill="#424242"/>
<path d="M1249.49 454.01C1250.32 454.01 1251 453.332 1251 452.496C1251 451.66 1250.32 450.982 1249.49 450.982C1248.65 450.982 1247.97 451.66 1247.97 452.496C1247.97 453.332 1248.65 454.01 1249.49 454.01Z" fill="#424242"/>
<path d="M932.494 262.018C933.331 262.018 934.008 261.34 934.008 260.504C934.008 259.668 933.331 258.99 932.494 258.99C931.658 258.99 930.98 259.668 930.98 260.504C930.98 261.34 931.658 262.018 932.494 262.018Z" fill="#424242"/>
<path d="M1076.49 294.016C1077.33 294.016 1078.01 293.338 1078.01 292.502C1078.01 291.666 1077.33 290.988 1076.49 290.988C1075.66 290.988 1074.98 291.666 1074.98 292.502C1074.98 293.338 1075.66 294.016 1076.49 294.016Z" fill="#424242"/>
<path d="M1160.49 264.018C1161.33 264.018 1162 263.34 1162 262.504C1162 261.668 1161.33 260.99 1160.49 260.99C1159.65 260.99 1158.98 261.668 1158.98 262.504C1158.98 263.34 1159.65 264.018 1160.49 264.018Z" fill="#424242"/>
<path d="M1113.98 345.195L1115.07 352.586L1116.48 352.377L1115.39 344.986L1113.98 345.195Z" fill="#383838"/>
<path d="M32 329.195L33.0914 336.586L34.5032 336.378L33.4117 328.987L32 329.195Z" fill="#383838"/>
<path d="M327.993 395.193L329.085 402.584L330.496 402.375L329.405 394.984L327.993 395.193Z" fill="#383838"/>
<path d="M112.241 456.982L104.998 458.815L105.348 460.2L112.591 458.366L112.241 456.982Z" fill="#383838"/>
<path d="M26.2432 263.989L19 265.823L19.3502 267.207L26.5934 265.374L26.2432 263.989Z" fill="#383838"/>
<path d="M12.6035 453.434L19.3734 450.276L18.7699 448.982L12 452.14L12.6035 453.434Z" fill="#383838"/>
<path d="M426.121 269.989L419.991 274.258L420.807 275.43L426.938 271.161L426.121 269.989Z" fill="#383838"/>
<path d="M174.8 206.047L172.345 198.992L170.996 199.462L173.451 206.516L174.8 206.047Z" fill="#383838"/>
<path d="M426.99 427.105L427.629 434.549L429.053 434.427L428.414 426.983L426.99 427.105Z" fill="#383838"/>
<path d="M256.509 406.012C257.345 406.012 258.023 405.334 258.023 404.498C258.023 403.662 257.345 402.984 256.509 402.984C255.672 402.984 254.995 403.662 254.995 404.498C254.995 405.334 255.672 406.012 256.509 406.012Z" fill="#383838"/>
<path d="M180.51 453.01C181.346 453.01 182.024 452.332 182.024 451.496C182.024 450.66 181.346 449.982 180.51 449.982C179.674 449.982 178.996 450.66 178.996 451.496C178.996 452.332 179.674 453.01 180.51 453.01Z" fill="#383838"/>
<path d="M258.509 350.014C259.345 350.014 260.023 349.336 260.023 348.5C260.023 347.664 259.345 346.986 258.509 346.986C257.672 346.986 256.995 347.664 256.995 348.5C256.995 349.336 257.672 350.014 258.509 350.014Z" fill="#383838"/>
<path d="M137.511 269.017C138.347 269.017 139.025 268.339 139.025 267.503C139.025 266.667 138.347 265.989 137.511 265.989C136.675 265.989 135.997 266.667 135.997 267.503C135.997 268.339 136.675 269.017 137.511 269.017Z" fill="#383838"/>
<path d="M380.506 352.014C381.342 352.014 382.02 351.336 382.02 350.5C382.02 349.664 381.342 348.986 380.506 348.986C379.67 348.986 378.992 349.664 378.992 350.5C378.992 351.336 379.67 352.014 380.506 352.014Z" fill="#383838"/>
<path d="M377.506 427.011C378.342 427.011 379.02 426.333 379.02 425.497C379.02 424.661 378.342 423.983 377.506 423.983C376.67 423.983 375.992 424.661 375.992 425.497C375.992 426.333 376.67 427.011 377.506 427.011Z" fill="#383838"/>
<path d="M348.507 273.017C349.343 273.017 350.021 272.339 350.021 271.503C350.021 270.667 349.343 269.989 348.507 269.989C347.671 269.989 346.993 270.667 346.993 271.503C346.993 272.339 347.671 273.017 348.507 273.017Z" fill="#383838"/>
<path d="M259.509 264.018C260.345 264.018 261.023 263.34 261.023 262.504C261.023 261.668 260.345 260.99 259.509 260.99C258.672 260.99 257.995 261.668 257.995 262.504C257.995 263.34 258.672 264.018 259.509 264.018Z" fill="#383838"/>
<path d="M417.505 304.016C418.341 304.016 419.019 303.338 419.019 302.502C419.019 301.666 418.341 300.988 417.505 300.988C416.669 300.988 415.991 301.666 415.991 302.502C415.991 303.338 416.669 304.016 417.505 304.016Z" fill="#383838"/>
<path d="M60.5125 403.012C61.3487 403.012 62.0265 402.334 62.0265 401.498C62.0265 400.662 61.3487 399.984 60.5125 399.984C59.6764 399.984 58.9985 400.662 58.9985 401.498C58.9985 402.334 59.6764 403.012 60.5125 403.012Z" fill="#383838"/>
<path d="M190.595 54.0252L196.023 48.8931L195.042 47.8553L189.614 52.9874L190.595 54.0252Z" fill="#424242"/>
<path d="M737.965 123.164L743.394 118.032L742.413 116.994L736.984 122.126L737.965 123.164Z" fill="#424242"/>
<path d="M103.427 100.315L110.699 102.023L111.025 100.633L103.753 98.9253L103.427 100.315Z" fill="#424242"/>
<path d="M787.983 9.38918L795.255 11.0967L795.582 9.70653L788.31 7.99903L787.983 9.38918Z" fill="#424242"/>
<path d="M35.027 214.81L33.9355 207.418L32.5238 207.627L33.6153 215.018L35.027 214.81Z" fill="#424242"/>
<path d="M24.7841 62.0248L32.0273 60.1914L31.6772 58.8071L24.4339 60.6405L24.7841 62.0248Z" fill="#424242"/>
<path d="M111.221 195.964L113.677 203.019L115.025 202.549L112.57 195.495L111.221 195.964Z" fill="#424242"/>
<path d="M352.901 155.751L354.63 163.021L356.02 162.69L354.291 155.421L352.901 155.751Z" fill="#424242"/>
<path d="M439.991 103.326L441.719 110.595L443.11 110.265L441.381 102.995L439.991 103.326Z" fill="#424242"/>
<path d="M277.508 91.9954C276.672 91.9954 275.994 92.6733 275.994 93.5094C275.994 94.3456 276.672 95.0234 277.508 95.0234C278.344 95.0234 279.022 94.3456 279.022 93.5094C279.022 92.6733 278.344 91.9954 277.508 91.9954Z" fill="#424242"/>
<path d="M378.506 42.9974C377.67 42.9974 376.992 43.6752 376.992 44.5114C376.992 45.3476 377.67 46.0254 378.506 46.0254C379.342 46.0254 380.02 45.3475 380.02 44.5114C380.02 43.6752 379.342 42.9974 378.506 42.9974Z" fill="#424242"/>
<path d="M592.501 117.994C591.665 117.994 590.987 118.672 590.987 119.508C590.987 120.345 591.665 121.022 592.501 121.022C593.337 121.022 594.015 120.345 594.015 119.508C594.015 118.672 593.337 117.994 592.501 117.994Z" fill="#424242"/>
<path d="M689.499 15.9984C688.663 15.9984 687.985 16.6762 687.985 17.5124C687.985 18.3485 688.663 19.0264 689.499 19.0264C690.335 19.0264 691.013 18.3485 691.013 17.5124C691.013 16.6762 690.335 15.9984 689.499 15.9984Z" fill="#424242"/>
<path d="M805.497 42.9974C804.661 42.9974 803.983 43.6752 803.983 44.5114C803.983 45.3476 804.661 46.0254 805.497 46.0254C806.333 46.0254 807.011 45.3475 807.011 44.5114C807.011 43.6752 806.333 42.9974 805.497 42.9974Z" fill="#424242"/>
<path d="M458.504 26.9984C457.668 26.9984 456.99 27.6762 456.99 28.5124C456.99 29.3485 457.668 30.0264 458.504 30.0264C459.34 30.0264 460.018 29.3485 460.018 28.5124C460.018 27.6762 459.34 26.9984 458.504 26.9984Z" fill="#424242"/>
<path d="M13.5133 129.994C12.6772 129.994 11.9993 130.672 11.9993 131.508C11.9993 132.344 12.6772 133.022 13.5133 133.022C14.3495 133.022 15.0273 132.344 15.0273 131.508C15.0273 130.672 14.3495 129.994 13.5133 129.994Z" fill="#424242"/>
<path d="M176.51 111.995C175.674 111.995 174.996 112.673 174.996 113.509C174.996 114.345 175.674 115.023 176.51 115.023C177.346 115.023 178.024 114.345 178.024 113.509C178.024 112.673 177.346 111.995 176.51 111.995Z" fill="#424242"/>
<path d="M85.5119 23.9984C84.6757 23.9984 83.9979 24.6762 83.9979 25.5124C83.9979 26.3485 84.6757 27.0264 85.5119 27.0264C86.348 27.0264 87.0259 26.3485 87.0259 25.5124C87.0259 24.6762 86.348 23.9984 85.5119 23.9984Z" fill="#424242"/>
<path d="M402.505 215.991C401.669 215.991 400.991 216.668 400.991 217.505C400.991 218.341 401.669 219.019 402.505 219.019C403.341 219.019 404.019 218.341 404.019 217.505C404.019 216.668 403.341 215.991 402.505 215.991Z" fill="#424242"/>
<path d="M258.508 183.992C257.672 183.992 256.994 184.67 256.994 185.506C256.994 186.342 257.672 187.02 258.508 187.02C259.345 187.02 260.022 186.342 260.022 185.506C260.022 184.67 259.345 183.992 258.508 183.992Z" fill="#424242"/>
<path d="M109.51 144.109C108.674 144.109 107.996 144.787 107.996 145.623C107.996 146.459 108.674 147.137 109.51 147.137C110.347 147.137 111.024 146.459 111.024 145.623C111.024 144.787 110.347 144.109 109.51 144.109Z" fill="#424242"/>
<path d="M221.023 132.813L219.931 125.422L218.52 125.631L219.611 133.022L221.023 132.813Z" fill="#383838"/>
<path d="M1303 148.812L1301.91 141.421L1300.5 141.63L1301.59 149.021L1303 148.812Z" fill="#383838"/>
<path d="M1007.01 82.8154L1005.91 75.4243L1004.5 75.6328L1005.59 83.0239L1007.01 82.8154Z" fill="#383838"/>
<path d="M1226.76 131.022L1234 129.189L1233.65 127.805L1226.41 129.638L1226.76 131.022Z" fill="#383838"/>
<path d="M1308.76 214.019L1316 212.185L1315.65 210.801L1308.41 212.634L1308.76 214.019Z" fill="#383838"/>
<path d="M1322.4 24.5735L1315.63 27.7314L1316.23 29.0257L1323 25.8677L1322.4 24.5735Z" fill="#383838"/>
<path d="M908.878 208.019L915.009 203.75L914.192 202.578L908.062 206.847L908.878 208.019Z" fill="#383838"/>
<path d="M1160.98 167.462L1163.43 174.517L1164.78 174.047L1162.32 166.993L1160.98 167.462Z" fill="#383838"/>
<path d="M877.044 83.4404L876.405 75.9961L874.981 76.1183L875.62 83.5626L877.044 83.4404Z" fill="#383838"/>
<path d="M1078.49 71.9964C1077.65 71.9964 1076.98 72.6743 1076.98 73.5104C1076.98 74.3466 1077.65 75.0244 1078.49 75.0244C1079.33 75.0244 1080 74.3466 1080 73.5104C1080 72.6743 1079.33 71.9964 1078.49 71.9964Z" fill="#383838"/>
<path d="M1154.49 24.9984C1153.65 24.9984 1152.98 25.6762 1152.98 26.5124C1152.98 27.3485 1153.65 28.0264 1154.49 28.0264C1155.33 28.0264 1156 27.3485 1156 26.5124C1156 25.6762 1155.33 24.9984 1154.49 24.9984Z" fill="#383838"/>
<path d="M1076.49 127.994C1075.65 127.994 1074.98 128.672 1074.98 129.508C1074.98 130.344 1075.65 131.022 1076.49 131.022C1077.33 131.022 1078 130.344 1078 129.508C1078 128.672 1077.33 127.994 1076.49 127.994Z" fill="#383838"/>
<path d="M1197.49 208.991C1196.65 208.991 1195.97 209.668 1195.97 210.505C1195.97 211.341 1196.65 212.019 1197.49 212.019C1198.32 212.019 1199 211.341 1199 210.505C1199 209.668 1198.32 208.991 1197.49 208.991Z" fill="#383838"/>
<path d="M956.494 71.9964C955.658 71.9964 954.98 72.6743 954.98 73.5104C954.98 74.3466 955.658 75.0244 956.494 75.0244C957.33 75.0244 958.008 74.3466 958.008 73.5104C958.008 72.6743 957.33 71.9964 956.494 71.9964Z" fill="#383838"/>
<path d="M906.495 -0.000655996C905.659 -0.000655922 904.981 0.677185 904.981 1.51334C904.981 2.3495 905.659 3.02734 906.495 3.02734C907.331 3.02734 908.009 2.3495 908.009 1.51334C908.009 0.677185 907.331 -0.000656069 906.495 -0.000655996Z" fill="#383838"/>
<path d="M986.493 204.991C985.657 204.991 984.979 205.668 984.979 206.505C984.979 207.341 985.657 208.019 986.493 208.019C987.329 208.019 988.007 207.341 988.007 206.505C988.007 205.668 987.329 204.991 986.493 204.991Z" fill="#383838"/>
<path d="M1075.49 213.991C1074.65 213.991 1073.98 214.668 1073.98 215.505C1073.98 216.341 1074.65 217.019 1075.49 217.019C1076.33 217.019 1077.01 216.341 1077.01 215.505C1077.01 214.668 1076.33 213.991 1075.49 213.991Z" fill="#383838"/>
<path d="M917.494 173.993C916.658 173.993 915.98 174.67 915.98 175.507C915.98 176.343 916.658 177.021 917.494 177.021C918.33 177.021 919.008 176.343 919.008 175.507C919.008 174.67 918.33 173.993 917.494 173.993Z" fill="#383838"/>
<path d="M1274.49 74.9964C1273.65 74.9964 1272.97 75.6743 1272.97 76.5104C1272.97 77.3466 1273.65 78.0244 1274.49 78.0244C1275.32 78.0244 1276 77.3466 1276 76.5104C1276 75.6743 1275.32 74.9964 1274.49 74.9964Z" fill="#383838"/>
</svg>
