<svg width="50" height="50" viewBox="0 0 50 50" fill="none" xmlns="http://www.w3.org/2000/svg">
<path d="M25 0C11.2149 0 0 11.2149 0 25C0 38.7851 11.2149 50 25 50C38.7851 50 50 38.7851 50 25C50 11.2149 38.7851 0 25 0ZM36.1081 32.2858C37.3743 33.5514 37.4723 35.2216 36.3473 36.3473C35.8351 36.8595 35.2054 37.1297 34.525 37.1297C33.7399 37.1297 32.9453 36.7669 32.2865 36.1081L25 28.8216L17.7135 36.1081C16.4831 37.3365 14.7554 37.4493 13.6527 36.3473C12.5277 35.2216 12.6257 33.5514 13.8919 32.2858L21.1777 25L13.8919 17.7142C12.6257 16.4486 12.5277 14.7784 13.6527 13.6527C14.7554 12.5507 16.4838 12.6628 17.7135 13.8919L25 21.1784L32.2865 13.8919C33.5162 12.6635 35.2446 12.55 36.3473 13.6527C37.4723 14.7784 37.3743 16.4486 36.1081 17.7142L28.8223 25L36.1081 32.2858Z" fill="#CE0014"/>
</svg>
