<svg width="28" height="28" viewBox="0 0 28 28" fill="none" xmlns="http://www.w3.org/2000/svg">
<path d="M14.0002 2.3335C10.906 2.3335 7.93851 3.56266 5.75058 5.75058C3.56266 7.93851 2.3335 10.906 2.3335 14.0002C2.3335 17.0944 3.56266 20.0618 5.75058 22.2497C7.93851 24.4377 10.906 25.6668 14.0002 25.6668C17.0944 25.6668 20.0618 24.4377 22.2497 22.2497C24.4377 20.0618 25.6668 17.0944 25.6668 14.0002C25.6668 10.906 24.4377 7.93851 22.2497 5.75058C20.0618 3.56266 17.0944 2.3335 14.0002 2.3335Z" fill="#29B6F6"/>
<path d="M19.8043 8.74984L17.6192 19.9067C17.6192 19.9067 17.5252 20.4165 16.8929 20.4165C16.5569 20.4165 16.3837 20.2567 16.3837 20.2567L11.6505 16.3291L9.33466 15.1618L6.36258 14.3714C6.36258 14.3714 5.8335 14.2186 5.8335 13.7811C5.8335 13.4165 6.37775 13.2427 6.37775 13.2427L18.8121 8.30301C18.8115 8.30242 19.1918 8.16592 19.4689 8.16651C19.6392 8.16651 19.8335 8.23942 19.8335 8.45817C19.8335 8.60401 19.8043 8.74984 19.8043 8.74984Z" fill="white"/>
<path d="M13.4167 17.7946L11.4182 19.7628C11.4182 19.7628 11.3312 19.8299 11.2152 19.8328C11.1749 19.834 11.1317 19.8275 11.0874 19.8077L11.6497 16.3281L13.4167 17.7946Z" fill="#B0BEC5"/>
<path d="M17.4401 10.6143C17.3415 10.4859 17.1595 10.4626 17.0312 10.56L9.3335 15.1666C9.3335 15.1666 10.562 18.6036 10.7492 19.1986C10.9371 19.7942 11.0876 19.8082 11.0876 19.8082L11.6499 16.3286L17.3852 11.0226C17.5136 10.9252 17.5375 10.7426 17.4401 10.6143Z" fill="#CFD8DC"/>
</svg>
