<svg width="28" height="28" viewBox="0 0 28 28" fill="none" xmlns="http://www.w3.org/2000/svg">
<path d="M13.9998 2.9165C12.4604 2.9165 7.77567 2.9165 5.18567 5.28134C3.64334 6.81784 2.9165 9.038 2.9165 12.2498V13.9998C2.9165 17.2117 3.64334 19.4318 5.20375 20.9858C5.98075 21.6946 7.04009 22.261 8.33509 22.6524L8.74984 22.7773V25.8853C8.74984 26.2498 8.85542 26.2498 8.89042 26.2498C8.96217 26.2498 9.07709 26.2271 9.29525 26.0334C9.34775 25.9815 9.73275 25.565 11.6053 23.4673L11.7943 23.2556L12.0772 23.2737C12.7043 23.3127 13.3512 23.3332 13.9998 23.3332C15.5393 23.3332 20.224 23.3332 22.814 20.9678C24.3557 19.4313 25.0832 17.2111 25.0832 13.9998V12.2498C25.0832 9.038 24.3563 6.81784 22.7959 5.26384C20.224 2.9165 15.5393 2.9165 13.9998 2.9165Z" fill="white"/>
<path d="M19.513 16.8318C18.8649 16.2858 18.5656 16.1207 17.6708 15.5835C17.298 15.3601 16.7299 15.167 16.4318 15.167C16.2282 15.167 15.9844 15.3227 15.835 15.4721C15.4524 15.8547 15.327 16.3337 14.6561 16.3337C13.9999 16.3337 12.8536 15.6657 12.0311 14.8024C11.1678 13.9799 10.4999 12.8337 10.4999 12.1774C10.4999 11.5066 10.97 11.3724 11.3527 10.9892C11.502 10.8404 11.6665 10.5966 11.6665 10.393C11.6665 10.0949 11.4735 9.53549 11.25 9.16274C10.7128 8.26733 10.5483 7.96808 10.0017 7.32058C9.81679 7.10124 9.60621 7.00091 9.38571 7.00033C9.01296 6.99974 8.52354 7.18466 8.19221 7.43141C7.69404 7.80299 7.17313 8.30874 7.03371 8.93874C7.01504 9.02449 7.00396 9.11083 7.00046 9.19716C6.97363 9.85341 7.23146 10.5196 7.50971 11.0837C8.16479 12.4131 9.03163 13.6999 9.97488 14.8491C10.2765 15.2166 10.6049 15.5584 10.945 15.8886C11.2751 16.2281 11.617 16.5565 11.9845 16.8587C13.1336 17.8019 14.4205 18.6687 15.7499 19.3238C16.3087 19.5992 16.9667 19.8523 17.6165 19.8337C17.7093 19.8307 17.802 19.8202 17.8948 19.7998C18.5248 19.661 19.0305 19.1395 19.4021 18.6413C19.6489 18.31 19.8338 17.8212 19.8332 17.4478C19.8326 17.2273 19.7323 17.0167 19.513 16.8318ZM19.8332 14.0003C19.5112 14.0003 19.2499 13.739 19.2499 13.417V12.8337C19.2499 9.93916 16.8944 7.58366 13.9999 7.58366C13.6779 7.58366 13.4165 7.32233 13.4165 7.00033C13.4165 6.67833 13.6779 6.41699 13.9999 6.41699C17.5378 6.41699 20.4165 9.29574 20.4165 12.8337V13.417C20.4165 13.739 20.1552 14.0003 19.8332 14.0003ZM16.2504 12.8337C15.9914 12.8337 15.7545 12.6598 15.6863 12.3973C15.5265 11.7842 15.0481 11.3053 14.4374 11.1478C14.1253 11.0667 13.938 10.7488 14.0185 10.4367C14.099 10.1252 14.4164 9.93799 14.7296 10.0179C15.7493 10.2822 16.5485 11.0807 16.815 12.1027C16.8961 12.4148 16.7095 12.7327 16.398 12.8144C16.3484 12.8272 16.2988 12.8337 16.2504 12.8337Z" fill="#7E57C2"/>
<path d="M18.0832 13.4167C17.7612 13.4167 17.4998 13.1554 17.4998 12.8334C17.4998 10.9737 16.045 9.43957 14.1877 9.34157C13.8657 9.32465 13.6189 9.0499 13.6358 8.72849C13.6527 8.40649 13.9322 8.15916 14.2489 8.17666C16.7263 8.30732 18.6665 10.3531 18.6665 12.8334C18.6665 13.1554 18.4052 13.4167 18.0832 13.4167Z" fill="#7E57C2"/>
<path d="M14 2.3335C11.375 2.3335 7.28463 2.575 4.79263 4.85116C3.03097 6.60525 2.3333 9.06575 2.3333 12.2502C2.3333 12.5138 2.33213 12.8078 2.33447 13.1252C2.33213 13.4419 2.3333 13.7359 2.3333 13.9996C2.3333 17.184 3.03097 19.6445 4.79263 21.3986C5.74113 22.2648 6.92413 22.8347 8.16663 23.2104V25.8856C8.16663 26.8166 8.77855 26.8335 8.89055 26.8335H8.8958C9.18396 26.8323 9.43305 26.6912 9.68271 26.4695C9.77663 26.3861 10.861 25.1774 12.0405 23.8556C12.7429 23.9005 13.4102 23.9168 13.9994 23.9168C16.6244 23.9168 20.7141 23.6747 23.2067 21.3986C24.9678 19.6451 25.666 17.184 25.666 13.9996C25.666 13.7359 25.6672 13.4419 25.6649 13.1246C25.6672 12.8072 25.666 12.5138 25.666 12.2496C25.666 9.06516 24.9684 6.60466 23.2067 4.85058C20.7147 2.575 16.625 2.3335 14 2.3335ZM23.9166 13.7966V13.9996C23.9166 16.8614 23.307 18.8115 21.9998 20.1316C19.7353 22.1668 15.4215 22.1668 13.9994 22.1668C13.5665 22.1668 12.8642 22.1662 12.0353 22.1085C11.8049 22.3675 9.3333 25.1319 9.3333 25.1319V21.7118C8.10596 21.4172 6.89322 20.9342 6.00013 20.1322C4.69288 18.8115 4.0833 16.8614 4.0833 13.9996V13.7966C4.0833 13.5918 4.08272 13.3707 4.08447 13.1123C4.08272 12.879 4.08272 12.6585 4.0833 12.4532V12.2502C4.0833 9.38833 4.69288 7.43825 6.00013 6.11816C8.26405 4.08291 12.5784 4.08291 14 4.08291C15.4215 4.08291 19.7353 4.08291 21.9992 6.11816C23.307 7.43825 23.916 9.38833 23.916 12.2502V12.4532C23.916 12.6579 23.9166 12.879 23.9149 13.1374C23.9166 13.3713 23.9166 13.5918 23.9166 13.7966Z" fill="#7E57C2"/>
</svg>
