<svg width="28" height="28" viewBox="0 0 28 28" fill="none" xmlns="http://www.w3.org/2000/svg">
<path d="M2.8396 25.2599L4.4111 19.5228C3.4416 17.844 2.93177 15.9388 2.93235 13.9876C2.93527 7.883 7.90293 2.9165 14.0081 2.9165C16.9709 2.91767 19.751 4.07092 21.8423 6.16334C23.9329 8.25634 25.0844 11.0377 25.0833 13.9963C25.0809 20.1009 20.1121 25.068 14.0081 25.068C14.0075 25.068 14.0081 25.068 14.0081 25.068H14.0034C12.1502 25.0674 10.3284 24.6025 8.71085 23.7199L2.8396 25.2599Z" fill="white"/>
<path d="M2.83975 25.5518C2.76275 25.5518 2.68808 25.5214 2.63267 25.4654C2.55975 25.3913 2.53117 25.2834 2.55858 25.1837L4.098 19.5627C3.14367 17.8675 2.64025 15.9425 2.64142 13.9883C2.64375 7.72217 7.74267 2.625 14.0083 2.625C17.0474 2.62617 19.9028 3.80975 22.0489 5.95758C24.195 8.106 25.3762 10.9608 25.3751 13.9965C25.3727 20.2621 20.2733 25.3598 14.0083 25.3598C12.148 25.3592 10.3076 24.9002 8.67425 24.0316L2.91383 25.5418C2.88933 25.5488 2.86483 25.5518 2.83975 25.5518Z" fill="white"/>
<path d="M14.0082 2.91683C16.9709 2.918 19.7511 4.07125 21.8423 6.16366C23.933 8.25666 25.0845 11.038 25.0833 13.9967C25.081 20.1012 20.1122 25.0683 14.0082 25.0683H14.0035C12.1503 25.0677 10.3285 24.6028 8.71093 23.7202L2.83968 25.2602L4.41118 19.5232C3.44168 17.8443 2.93184 15.9392 2.93243 13.9879C2.93534 7.88333 7.90301 2.91683 14.0082 2.91683ZM14.0082 2.3335C7.58218 2.3335 2.35201 7.56133 2.34909 13.9879C2.34851 15.952 2.84434 17.8875 3.78468 19.6007L2.27676 25.1068C2.22193 25.3081 2.27793 25.5227 2.42493 25.6709C2.53576 25.7829 2.68568 25.8442 2.83968 25.8442C2.88926 25.8442 2.93884 25.8377 2.98784 25.8249L8.63859 24.3432C10.2883 25.1996 12.1374 25.6517 14.0035 25.6522C20.4342 25.6522 25.6643 20.4238 25.6673 13.9972C25.6684 10.8828 24.4568 7.9545 22.2559 5.75183C20.0538 3.54858 17.1249 2.33466 14.0082 2.3335Z" fill="#CFD8DC"/>
<path d="M20.5191 7.48561C18.7808 5.74611 16.4702 4.78769 14.0108 4.78711C8.93351 4.78711 4.80409 8.91478 4.80176 13.9886C4.80118 15.7275 5.28768 17.4204 6.20934 18.8863L6.42868 19.2345L5.49826 22.6301L8.98251 21.7166L9.31909 21.9161C10.7319 22.7549 12.3524 23.1983 14.0044 23.1989H14.0079C19.0818 23.1989 23.2112 19.0706 23.2129 13.9962C23.2135 11.5374 22.2574 9.22511 20.5191 7.48561Z" fill="#40C351"/>
<path fill-rule="evenodd" clip-rule="evenodd" d="M11.2397 9.35976C11.0326 8.89893 10.8145 8.8896 10.6167 8.88143C10.4551 8.87443 10.2708 8.87501 10.0865 8.87501C9.90214 8.87501 9.6023 8.94443 9.34855 9.22151C9.0948 9.4986 8.37964 10.1677 8.37964 11.5292C8.37964 12.8907 9.37131 14.2067 9.50956 14.391C9.64781 14.5753 11.4241 17.4588 14.2369 18.5683C16.5743 19.4899 17.0503 19.3068 17.5578 19.2607C18.0653 19.2146 19.1952 18.5916 19.4256 17.9453C19.6561 17.2989 19.6561 16.7453 19.5872 16.6298C19.5178 16.5143 19.3335 16.4455 19.057 16.3067C18.7805 16.1678 17.4196 15.4988 17.1658 15.4066C16.9121 15.3144 16.7277 15.2683 16.5428 15.5454C16.3585 15.8219 15.8282 16.4455 15.6666 16.6298C15.5051 16.8148 15.3435 16.8381 15.067 16.6993C14.7905 16.5604 13.8991 16.2688 12.8416 15.3261C12.0191 14.5928 11.4637 13.6869 11.3021 13.4098C11.1406 13.1333 11.2846 12.9834 11.4235 12.8452C11.5477 12.7209 11.7 12.522 11.8388 12.3604C11.9771 12.1988 12.0231 12.0833 12.1153 11.899C12.2075 11.7141 12.1614 11.5525 12.092 11.4143C12.0237 11.2754 11.4859 9.90693 11.2397 9.35976Z" fill="white"/>
</svg>
